<?xml version="1.0" encoding="utf-8"?>
<svg version="1.1" id="facebook" 
    xmlns="http://www.w3.org/2000/svg" 
    xmlns:xlink="http://www.w3.org/1999/xlink" x="0px" y="0px" viewBox="0 0 1536 1536" style="enable-background:new 0 0 1536 1536;" xml:space="preserve">
    <path fill="#3B5998" d="M1451,0c23.3,0,43.3,8.3,60,25s25,36.7,25,60v1366c0,23.3-8.3,43.3-25,60s-36.7,25-60,25h-391V941h199l30-232 h-229V561c0-37.3,7.8-65.3,23.5-84s46.2-28,91.5-28l122-1V241c-42-6-101.3-9-178-9c-90.7,0-163.2,26.7-217.5,80S820,440.7,820,538 v171H620v232h200v595H85c-23.3,0-43.3-8.3-60-25s-25-36.7-25-60V85c0-23.3,8.3-43.3,25-60S61.7,0,85,0H1451z"/>
</svg>
