<svg xmlns="http://www.w3.org/2000/svg" viewBox="979.5 60 81.984 60">
  <defs>
    <style>
      .cls-1 {
        fill: #770e78;
      }
    </style>
  </defs>
  <path id="Prancheta_4" data-name="Prancheta 4" class="cls-1" d="M81.123,37.894a16.422,16.422,0,0,1-2.332,2.725,3.1,3.1,0,0,1-1.6.959c-.413,0-.666-.107-.759-.313a6.529,6.529,0,0,1-.14-1.825V29.893l-2.472,1.266a5.516,5.516,0,0,0-2.885-.873c-1.372,0-2.971.719-4.783,2.172a24.416,24.416,0,0,0-5.036,5.716c-1.692,2.265-2.978,3.391-3.864,3.391A.666.666,0,0,1,56.587,41a11.625,11.625,0,0,1-.127-2.079V35.156c0-2.205-.22-3.6-.666-4.15a2.165,2.165,0,0,0-1.832-.839,4.037,4.037,0,0,0-2.552,1.013,20.206,20.206,0,0,0-3.331,4V29.959l-2.738,1.332a20.252,20.252,0,0,1-3.2,6.662h0A10.12,10.12,0,0,1,39.2,40.738a5.936,5.936,0,0,1-2.931.953c-1.839,0-3.031-.666-3.617-2q6.429-3.538,6.422-7.182a2.245,2.245,0,0,0-.746-1.739,2.725,2.725,0,0,0-1.9-.666,6.362,6.362,0,0,0-4.044,1.612,35.9,35.9,0,0,0-5.143,6.1h0a15.562,15.562,0,0,1-3.737,4l.06-1.039q0-5.756-4-8.274a30.3,30.3,0,0,0,5.083-7.555,18.094,18.094,0,0,0,1.559-7.421v-.113a2.092,2.092,0,0,0,2.152,1.059,2.2,2.2,0,0,0,1.519-.666c.14-.393-1.119-1.759-1.412-1.959a5,5,0,0,0,.666-.047c-.28-1.9.06-2.791-2.2-4a6.084,6.084,0,0,0,2.119-1.739,5.1,5.1,0,0,0-3.331-2.152c1.059-1.392,2.365-2.378,3.691.107,0,0-.047,1.919.779,1.572s.62-3.711-1.732-4.217a2.358,2.358,0,0,0-2.438,1.079.3.3,0,0,0-.047.093,7.006,7.006,0,0,0-2.5-6c-2.158-1.759-2.6.773-.56,1.332,0,0,3.284,2.3,2.185,4.723,0,0-.666.953-.993.953a4.533,4.533,0,0,0,.28-2.445h0A2.778,2.778,0,0,0,23.19,3.4l-.113-.067A4.61,4.61,0,0,0,21.031,5.17,5.31,5.31,0,0,0,17.74,1.839a1.186,1.186,0,0,0-1.086-.753h0S14.1,2.172,15.076,3.977a5.636,5.636,0,0,0,1.652,2,13.783,13.783,0,0,0-1.852-.127A14.377,14.377,0,0,0,4.51,10.273,14.41,14.41,0,0,0,0,20.912a9.153,9.153,0,0,0,2.119,6.349,6.855,6.855,0,0,0,5.33,2.392,7.994,7.994,0,0,0,5.923-2.665,8.381,8.381,0,0,0,2.618-5.949,5.056,5.056,0,0,0-1.133-3.384,3.538,3.538,0,0,0-2.765-1.332q-2.592,0-3.444,3.038l.56.426a2.052,2.052,0,0,1,1.912-1.093A2.592,2.592,0,0,1,13.2,19.706a3.911,3.911,0,0,1,.793,2.6A5.223,5.223,0,0,1,12.331,26.2,5.136,5.136,0,0,1,8.66,27.814a5.254,5.254,0,0,1-4.344-2.485,10.1,10.1,0,0,1-1.8-6.082,12.058,12.058,0,0,1,3.211-8.221A9.538,9.538,0,0,1,13.057,7.4a9.025,9.025,0,0,1,7.122,3.538,13.708,13.708,0,0,1,2.951,9.12,17.028,17.028,0,0,1-4.663,11.992,7.2,7.2,0,0,0-2.418-.48,9.187,9.187,0,0,0-4.8,1.272c-1.412.853-2.125,1.8-2.125,2.818,0,1.139.666,1.712,2.085,1.712q2.665,0,6.749-3.231c1.685,1.486,2.538,3.751,2.538,6.789a19.52,19.52,0,0,1-.227,2.778q-9.853,5.33-12.1,7.741a7.294,7.294,0,0,0-2.252,4.9,3.331,3.331,0,0,0,1.159,2.611,4.1,4.1,0,0,0,2.8.979q3.391,0,7.695-4.53a23.628,23.628,0,0,0,5.783-11.992,14.363,14.363,0,0,0,4.83-5h0c.3-.406.666-.886,1.086-1.426a9.094,9.094,0,0,0-.12,1.432,5.4,5.4,0,0,0,1.332,3.924,4.91,4.91,0,0,0,3.691,1.392,9.68,9.68,0,0,0,5.163-1.219,11.325,11.325,0,0,0,3.291-3.378h0A18.254,18.254,0,0,0,45.3,34.623v9.46l2.811-1.792v-5.05a9.38,9.38,0,0,1,1.019-1.705,24.077,24.077,0,0,1,1.586-2.185,6.209,6.209,0,0,1,1.059-1,1.666,1.666,0,0,1,.946-.333c.62,0,.933.493.933,1.486v6.449a5.408,5.408,0,0,0,.526,3.011,1.859,1.859,0,0,0,1.539.666q3.091,0,6.489-5h0c.56-.806.919-1.332,1.1-1.546v1.2a5.929,5.929,0,0,0,1.279,4,4.317,4.317,0,0,0,3.438,1.486A5.536,5.536,0,0,0,70.69,43.1a10.992,10.992,0,0,0,2.851-2.718,4.441,4.441,0,0,0,.526,2.592,2,2,0,0,0,1.659.62c2,0,4.124-1.666,6.256-5ZM29.885,8.8a.22.22,0,1,1,.045.164.22.22,0,0,1-.045-.164ZM22.43.993a.213.213,0,0,1-.24.2.22.22,0,0,1-.207-.24.213.213,0,0,1,.24-.2.207.207,0,0,1,.207.24Zm-5.07,3.118-.939-1.506a4.23,4.23,0,0,0,.859,2.472c0,.08.073.153.107.233a2.717,2.717,0,0,1-1.659-2.4c-.033-.62.253-.713.52-.946V2a.167.167,0,0,1,.02-.02l.107-.107c.3-.207.779.22,1.139.52a4.483,4.483,0,0,0-.153,1.719Zm1.659.426s.053.346.173.826h0c.093.38.207.839.34,1.332-2.092-2.052-1.206-3.6-1.206-3.6.959.107,2.105,1.925,2.2,4.384-.54-1.059-1.506-2.945-1.506-2.945ZM29.459,17.621c-.067.22-.413.233-.62.22a3.271,3.271,0,0,1-2.125-.886s-.246-.426-.453-.839c.473.28,1.839,1.046,1.839,1.046a9.46,9.46,0,0,0-1.572-1.332C27.76,15.656,28.7,17.028,29.459,17.621ZM28.426,14.91a3.393,3.393,0,0,1-3.544-2.139L26.954,13.8l.047.033h0l.606.3A20.772,20.772,0,0,0,25.315,12.3a4.5,4.5,0,0,0-.38-.273c3.571.56,3.491,2.885,3.491,2.885ZM23.869,9.58h0l.3-.127h0l.266-.1h0c.093-.04.173-.06.253-.087h0a4,4,0,0,1,1.332-.193h.173a.946.946,0,0,1,.16,0h0a2.332,2.332,0,0,1,.8.286h0l.087.06h0l.093.067h0a.872.872,0,0,1,.08.073h0a2.125,2.125,0,0,1,.28.3h0v.047h0a.033.033,0,0,1,0,.033h0c-.047.067-.08.127-.127.187a.06.06,0,0,0,0,.033,1.672,1.672,0,0,1-.127.16h0c-.047.04-.08.087-.127.133h0a1.552,1.552,0,0,1-.153.127h0a.833.833,0,0,1-.16.107h0l-.173.093h0l-.173.073h0a.873.873,0,0,1-.18.04h0l-.213.04h-.446l-.24-.04h0a2.918,2.918,0,0,1-.546-.127h0a1.015,1.015,0,0,1-.266-.08h-.08l-.207-.08h-.053c-.253-.093-.52-.207-.8-.333.486-.047,1.259-.127,1.945-.207a7.435,7.435,0,0,0,1.079-.007c.286-.04.466-.047.466-.047a16.888,16.888,0,0,0-3.524-.3Zm-1.652-.873c.16-1.079.506-3.551.506-3.551a18.474,18.474,0,0,0-1.106,3.091C20.372,4.917,23.1,4.417,23.1,4.417c.433.44,1.113,2.385-.886,4.284ZM14.476,34.976a5.829,5.829,0,0,1-2.125.526c-.62,0-.933-.22-.933-.666s.333-.853.986-1.219a4.75,4.75,0,0,1,2.372-.553,4.464,4.464,0,0,1,1.905.386,6.256,6.256,0,0,1-2.205,1.526Zm1.705,19.74q-2.918,3.7-5.589,3.691a2.065,2.065,0,0,1-1.552-.62,2.178,2.178,0,0,1-.586-1.572c0-1.705.926-3.418,2.8-5.15a43.218,43.218,0,0,1,8.82-5.783,20.579,20.579,0,0,1-3.9,9.433ZM31.9,37.8a5.716,5.716,0,0,1-.233-1.712,5.2,5.2,0,0,1,.979-3.171,2.951,2.951,0,0,1,2.418-1.332,1.566,1.566,0,0,1,1.252.533,2,2,0,0,1,.46,1.379c0,1.852-1.552,3.544-4.663,5.05A5.13,5.13,0,0,0,31.9,37.8Zm41.558.486c0,.24-.366.793-1.119,1.646A3.2,3.2,0,0,1,69.951,41.2a3.331,3.331,0,0,1-2.665-1.1,4.663,4.663,0,0,1-.953-3.131,5.709,5.709,0,0,1,1.332-3.9A3.957,3.957,0,0,1,70.71,31.5a3.651,3.651,0,0,1,2.745,1.119Z" transform="translate(979.501 60.059)"/>
</svg>
