<?xml version="1.0" encoding="utf-8"?>
<!-- Generator: Adobe Illustrator 19.2.1, SVG Export Plug-In . SVG Version: 6.00 Build 0)  -->
<svg version="1.0"
	 inkscape:version="0.48.2 r9819" sodipodi:docname="LOGO-ZENA.png" xmlns:cc="http://creativecommons.org/ns#" xmlns:dc="http://purl.org/dc/elements/1.1/" xmlns:inkscape="http://www.inkscape.org/namespaces/inkscape" xmlns:rdf="http://www.w3.org/1999/02/22-rdf-syntax-ns#" xmlns:sodipodi="http://sodipodi.sourceforge.net/DTD/sodipodi-0.dtd" xmlns:svg="http://www.w3.org/2000/svg"
	 xmlns="http://www.w3.org/2000/svg" xmlns:xlink="http://www.w3.org/1999/xlink" x="0px" y="0px" viewBox="0 0 136.7 100"
	 style="enable-background:new 0 0 136.7 100;" xml:space="preserve">
<style type="text/css">
	.st0{fill:#DDDDDD;}
</style>
<path class="st0" d="M135.3,63.2c-1.4,2-2.7,3.5-3.9,4.5c-1.2,1.1-2.1,1.6-2.7,1.6c-0.7,0-1.1-0.2-1.3-0.5c-0.2-0.3-0.2-1.4-0.2-3
	V49.9l-4.1,2.1c-1.6-1-3.2-1.5-4.8-1.5c-2.3,0-4.9,1.2-8,3.6c-2.9,2.3-5.7,5.5-8.4,9.5c-2.8,3.8-5,5.7-6.4,5.7c-0.6,0-1-0.3-1.2-0.9
	c-0.1-0.6-0.2-1.8-0.2-3.5v-6.3c0-3.7-0.4-6-1.1-6.9c-0.7-0.9-1.7-1.4-3-1.4c-1.4,0-2.9,0.6-4.3,1.7s-3.2,3.3-5.5,6.7V50l-4.6,2.2
	c-0.8,3.3-2.6,7-5.4,11.1l0,0c-1.5,2-3.1,3.6-4.9,4.6c-1.8,1.1-3.4,1.6-4.9,1.6c-3.1,0-5.1-1.1-6-3.4c7.2-3.9,10.7-7.9,10.7-12
	c0-1.2-0.4-2.1-1.2-2.9c-0.8-0.7-1.9-1.1-3.2-1.1c-2.3,0-4.6,0.9-6.8,2.7c-2,1.7-4.9,5.1-8.6,10.2l0,0c-2.1,3-4.2,5.3-6.2,6.7
	l0.1-1.7c0-6.4-2.2-11-6.7-13.8c3.9-4.4,6.8-8.6,8.5-12.5c1.7-3.9,2.6-8.1,2.6-12.4c0-0.1,0-0.1,0-0.2c0.2,0.3,1.4,2.2,3.6,1.8
	c0.8-0.1,2-0.3,2.5-1.1c0.2-0.7-1.9-2.9-2.4-3.3c0.4,0,0.8,0,1.2-0.1c-0.5-3.2,0.1-4.7-3.7-6.7c3-1.8,3.5-2.9,3.5-2.9
	s-2.2-3.3-5.5-3.6c1.8-2.3,4-4,6.2,0.2c0,0-0.1,3.2,1.3,2.6c1.4-0.6,1-6.2-2.9-7c-2.6-0.3-3.8,1.3-4.1,1.8c-0.1,0.1-0.1,0.2-0.1,0.2
	s0.7-6.2-4.2-10c-3.6-2.9-4.3,1.3-0.9,2.2c0,0,5.5,3.8,3.6,7.9c0,0-1.1,1.6-1.6,1.6c0.3-1,1-3,0.5-4.1l0,0c0,0-0.3-1.9-2-2.9
	c-0.1-0.1-0.1-0.1-0.2-0.1c-0.5-0.1-3.1,2.1-3.4,3.1c-0.1-1.6-3.4-5.3-5.5-5.6c-0.6-1.4-2-1.3-2-1.3l0,0l0,0c0,0-4.2,1.8-2.6,4.9
	c0.8,1.5,1.7,2.5,2.8,3.3c-1-0.1-2-0.2-3.1-0.2c-6.5,0-12.3,2.5-17.3,7.4S0,28,0,34.9c0,4.4,1.2,7.9,3.5,10.6c2.4,2.6,5.3,4,8.9,4
	c3.7,0,7-1.5,9.9-4.5s4.3-6.3,4.3-9.9c0-2.3-0.6-4.2-1.9-5.6c-1.3-1.5-2.8-2.2-4.6-2.2c-2.9,0-4.8,1.7-5.8,5.1l0.9,0.7
	c0.7-1.2,1.7-1.8,3.2-1.8c1.4,0,2.5,0.6,3.5,1.7c0.9,1.1,1.4,2.6,1.4,4.4c0,2.5-0.9,4.7-2.8,6.5c-1.8,1.8-3.9,2.7-6.1,2.7
	c-2.8,0-5.3-1.4-7.2-4.1s-3-6.1-3-10.1c0-5.1,1.8-9.7,5.3-13.7s7.6-6,12.3-6s8.6,2,11.9,5.9c3.3,3.9,4.9,9,4.9,15.2
	c0,7.7-2.6,14.3-7.8,19.9c-1.5-0.5-2.8-0.8-4-0.8c-3,0-5.6,0.7-8,2.1c-2.4,1.4-3.5,3-3.5,4.7c0,1.9,1.2,2.9,3.5,2.9
	c3,0,6.7-1.8,11.3-5.4c2.8,2.5,4.2,6.3,4.2,11.3c0,1.4-0.1,3-0.4,4.6c-11,5.9-17.7,10.2-20.2,12.9c-2.5,2.7-3.8,5.4-3.8,8.2
	c0,1.8,0.7,3.2,1.9,4.4c1.3,1.1,2.9,1.7,4.7,1.7c3.8,0,8-2.5,12.8-7.6c4.8-5,8-11.7,9.6-20c3-1.8,5.7-4.6,8.1-8.3l0,0
	c0.5-0.7,1.1-1.5,1.8-2.4c-0.1,0.8-0.2,1.6-0.2,2.4c0,2.8,0.7,5,2.3,6.5S54.4,73,57,73c3.6,0,6.4-0.7,8.6-2c2-1.2,3.8-3.1,5.5-5.7
	l0,0c2-2.5,3.4-5,4.4-7.5v15.7l4.7-3v-8.4c0-0.2,0.6-1.1,1.7-2.8c1.1-1.7,2-2.9,2.6-3.6c0.6-0.7,1.2-1.3,1.8-1.7
	c0.5-0.4,1.1-0.6,1.6-0.6c1,0,1.6,0.8,1.6,2.5v10.7c0,2.6,0.3,4.3,0.9,5c0.6,0.7,1.5,1.1,2.6,1.1c3.4,0,7-2.8,10.8-8.3l0,0
	c0.9-1.3,1.5-2.2,1.8-2.6v2.1c0,2.8,0.7,5,2.1,6.7c1.4,1.6,3.3,2.5,5.7,2.5c1.6,0,3.1-0.3,4.4-1.1c1.3-0.7,2.9-2.2,4.8-4.5
	c0,2.2,0.3,3.6,0.9,4.3c0.6,0.7,1.5,1,2.8,1c3.4,0,6.9-2.8,10.4-8.3L135.3,63.2z M49.8,14.7c0-0.2,0.2-0.3,0.4-0.3
	c0.2,0,0.3,0.2,0.3,0.4c0,0.2-0.2,0.3-0.4,0.3C50,15.1,49.8,14.9,49.8,14.7z M37.4,1.7C37.4,1.9,37.2,2,37,2c-0.2,0-0.3-0.2-0.3-0.4
	c0-0.2,0.2-0.3,0.4-0.3C37.3,1.3,37.4,1.5,37.4,1.7z M29,6.9c-0.8-1.3-1.6-2.5-1.6-2.5s0,2.5,1.4,4.1c0.1,0.1,0.1,0.2,0.2,0.4
	c-0.9-0.5-3-1.8-2.8-4c-0.1-1,0.4-1.2,0.9-1.6l0,0.1c0,0,0-0.1,0.1-0.1c0.1-0.1,0.1-0.1,0.2-0.2c0.5-0.3,1.3,0.4,1.9,0.9
	C28.9,4.9,28.9,6,29,6.9z M31.7,7.6c0,0,0.1,0.6,0.3,1.4l0,0c0,0,0,0,0,0c0.2,0.6,0.3,1.4,0.6,2.2c-3.5-3.4-2-6-2-6
	c1.6,0.2,3.5,3.2,3.7,7.3C33.4,10.7,31.7,7.6,31.7,7.6z M49.1,29.4c-0.1,0.4-0.7,0.4-1,0.4c-1.2-0.1-2.7-0.5-3.5-1.5
	c0,0-0.4-0.7-0.7-1.4c0.8,0.5,3.1,1.7,3.1,1.7s-1.5-1.6-2.6-2.3C46.3,26.1,47.9,28.4,49.1,29.4z M47.4,24.9
	c-1.4,0.3-4.3-0.3-5.9-3.6c1.1,0.5,2.5,1.2,3.5,1.7l0.1,0.1c0,0,0,0,0,0c0.6,0.3,1,0.5,1,0.5s-1.9-1.8-3.8-3
	c-0.2-0.2-0.4-0.3-0.6-0.5C47.5,21,47.4,24.9,47.4,24.9z M39.8,16C39.8,16,39.8,16,39.8,16c0.2-0.1,0.3-0.2,0.5-0.2h0
	c0.2-0.1,0.3-0.1,0.4-0.2h0c0.2-0.1,0.3-0.1,0.4-0.1c0,0,0,0,0,0c0.9-0.3,1.6-0.3,2.2-0.3l0,0c0.1,0,0.2,0,0.3,0l0,0
	c0.1,0,0.2,0,0.3,0l0,0c0.5,0.1,1,0.3,1.3,0.5l0,0c0.1,0,0.1,0.1,0.2,0.1l0,0c0.1,0,0.1,0.1,0.2,0.1l0,0c0,0,0.1,0.1,0.1,0.1l0,0
	c0.2,0.2,0.4,0.4,0.5,0.5l0,0c0,0,0,0.1,0.1,0.1l0,0c0,0,0,0,0,0.1l0,0c0,0,0,0,0,0.1l0,0c0,0,0,0,0,0l0,0c0,0,0,0,0,0l0,0l0,0
	c-0.1,0.1-0.1,0.2-0.2,0.3c0,0,0,0,0,0.1c-0.1,0.1-0.1,0.2-0.2,0.3c0,0,0,0,0,0c-0.1,0.1-0.1,0.2-0.2,0.2c0,0,0,0,0,0
	c-0.1,0.1-0.2,0.1-0.2,0.2c0,0,0,0,0,0c-0.1,0.1-0.2,0.1-0.3,0.2l0,0c-0.1,0.1-0.2,0.1-0.3,0.2c0,0,0,0,0,0c-0.1,0-0.2,0.1-0.3,0.1
	c0,0,0,0,0,0c-0.1,0-0.2,0.1-0.3,0.1l0,0c-0.1,0-0.2,0-0.3,0.1c0,0,0,0,0,0c-0.2,0-0.5,0-0.7,0h0c-0.1,0-0.3,0-0.4-0.1c0,0,0,0,0,0
	c-0.3,0-0.6-0.1-0.9-0.2c0,0,0,0,0,0c-0.2,0-0.3-0.1-0.4-0.1c0,0-0.1,0-0.1-0.1c-0.1,0-0.2-0.1-0.3-0.1c0,0-0.1,0-0.1,0l0,0
	c-0.4-0.2-0.9-0.3-1.3-0.6c0.8-0.1,2.1-0.2,3.2-0.3c0.7,0,1.3-0.1,1.9-0.2c0.5-0.1,0.8-0.1,0.8-0.1s-3.5-0.7-5.9-0.5
	C39.5,16.2,39.7,16.1,39.8,16z M37.1,14.5c0.3-1.8,0.8-5.9,0.8-5.9s-1.3,2.9-1.8,5.2c-2.1-5.6,2.5-6.4,2.5-6.4
	C39.3,8.1,40.4,11.4,37.1,14.5z M24.1,58.4c-1.4,0.6-2.6,0.9-3.5,0.9c-1,0-1.6-0.4-1.6-1.1c0-0.7,0.6-1.4,1.6-2s2.4-0.9,4-0.9
	c1.2,0,2.2,0.2,3.2,0.7C26.8,56.9,25.6,57.8,24.1,58.4z M27,91.3c-3.2,4.1-6.3,6.2-9.3,6.2c-1.1,0-1.9-0.3-2.6-1
	c-0.7-0.7-1-1.6-1-2.6c0-2.8,1.6-5.7,4.7-8.6c3.1-2.9,8-6.1,14.7-9.6C32.4,82,30.2,87.2,27,91.3z M53.2,63.1
	c-0.2-0.8-0.4-1.7-0.4-2.9c0-2.1,0.5-3.8,1.6-5.3c1.1-1.5,2.4-2.2,4-2.2c0.9,0,1.6,0.3,2.1,0.9s0.8,1.4,0.8,2.3
	c0,3.1-2.6,5.9-7.8,8.4C53.6,64.3,53.4,63.8,53.2,63.1z M122.5,63.9c0,0.4-0.6,1.3-1.9,2.7c-1.2,1.4-2.6,2.1-4,2.1
	c-1.8,0-3.3-0.6-4.4-1.8s-1.6-3-1.6-5.2c0-2.6,0.7-4.8,2.3-6.5c1.5-1.7,3.2-2.6,5.1-2.6c1.7,0,3.3,0.6,4.5,1.9V63.9z"/>
</svg>
