<?xml version="1.0" encoding="utf-8"?>
<!-- Generator: Adobe Illustrator 22.0.1, SVG Export Plug-In . SVG Version: 6.00 Build 0)  -->
<svg version="1.1" id="mascara-zena" xmlns="http://www.w3.org/2000/svg" xmlns:xlink="http://www.w3.org/1999/xlink" x="0px" y="0px" viewBox="0 0 90 90" style="enable-background:new 0 0 90 90;" xml:space="preserve">
	<g>
		<path fill="#ffffff" d="M45.3,73.8c-0.1,5.8-2,11.6-5.5,16.3h-5.5c2.7-3.3,4.1-7.5,4-11.7c0.2-3.3-0.8-6.6-2.9-9.2 c-1.7-2.3-4.4-3.6-7.3-3.6c-2.8-0.2-5.4,1.3-6.7,3.8l-2-1.5c2-7.1,6-10.7,12.1-10.7c3.8,0,7.3,1.7,9.7,4.7 C44,65.3,45.5,69.5,45.3,73.8z"/>
		<path fill="#ffffff" d="M90,24.4V19l-0.7-0.1c-3.3-0.6-6.7,0.9-8.6,3.8c-0.1,0.1-0.1,0.2-0.2,0.3c0.1,0,1.6-13.1-8.6-21 c-1.9-1.5-3.5-2.1-4.6-2.1c-3.3,0-2.8,5.3,2.5,6.8c0,0,11.5,8.1,7.7,16.6c0,0-2.3,3.4-3.5,3.4c0.6-2.2,2.1-6.3,1-8.6 c-0.6-2.5-2.1-4.6-4.2-6c-0.1-0.1-0.3-0.2-0.4-0.2c-1-0.1-6.6,4.4-7.2,6.5C63,14.8,56.1,7.1,51.7,6.5c-0.6-1.7-2.3-2.8-4.1-2.7 c0,0-8.9,3.8-5.4,10.2c1.4,2.7,3.4,5.1,5.8,6.9c-2.2-0.3-4.3-0.4-6.5-0.5c-13.7,0-25.8,5.2-36.4,15.6c-1.8,1.8-3.5,3.7-5.1,5.7 v13.2c1.9-6,5.2-11.6,9.4-16.3c7.4-8.5,16-12.7,25.7-12.7S53.1,30,60,38.3c6.9,8.3,10.4,19,10.4,32c0,6.6-1,13.4-3,19.8h7.3 c0.4-0.8,0.8-1.8,1.1-2.6c3.6-8.2,5.5-17,5.5-26v-0.4c0.4,0.7,3,4.6,7.5,3.7c0.4,0,1.3-0.2,1.3-0.2v-2.1c0,0-5.3-1.1-7.1-3.1 c0,0-0.8-1.5-1.6-3c1.5,0.9,6,3.4,6.4,3.7c-1.7-1.8-3.5-3.4-5.5-4.7c3-0.3,7.8,4,7.8,4V46.8c0,0-2.6-3.5-6.1-5.3 c2.2-1.3,6.1-4.6,6.1-4.6v-3.2c0,0-5.5-5.5-10.3-5.9C82.7,23.8,90,24.4,90,24.4z M67.7,4.4C67.3,4.3,67,3.9,67,3.5 c0-0.4,0.4-0.8,0.8-0.7c0.4,0,0.8,0.4,0.7,0.8C68.5,4.1,68.2,4.4,67.7,4.4z M50.2,14.3L46.9,9c0,0,0,5.2,3,8.7 c0.1,0.3,0.2,0.5,0.4,0.8c-1.9-0.9-6.3-3.7-5.9-8.3c-0.1-2.2,0.9-2.5,1.8-3.3V7c0-0.1,0.1-0.1,0.1-0.2l0.4-0.4c1-0.7,2.7,0.8,4,1.8 C50.1,10.2,49.9,12.3,50.2,14.3z M56,15.9c0,0,0.2,1.2,0.6,2.8v0.1c0.3,1.3,0.7,3,1.2,4.6c-7.3-7.2-4.2-12.6-4.2-12.6 c3.3,0.4,7.4,6.7,7.8,15.4C59.4,22.5,56,15.9,56,15.9z M67.1,30.5c0.6-3.8,1.8-12.5,1.8-12.5c-1.6,3.5-2.9,7.1-3.9,10.9 c-4.4-11.7,5.2-13.5,5.2-13.5C71.7,17,74.1,23.8,67.1,30.5z M89,52.3c-0.5,0.1-1.1,0.2-1.6,0.2c-3.2-0.1-8-1.9-10.8-7.7l7.3,3.6 l0.2,0.1c1.3,0.6,2.1,1,2.1,1c-2.5-2.3-5.2-4.5-8-6.4c-0.4-0.4-0.9-0.7-1.3-1C89.2,44.1,89,52.3,89,52.3z M80.6,31.9h0.6 c0.2,0,0.4,0,0.6,0.1c1,0.2,1.9,0.5,2.8,1l0.3,0.2c0.1,0.1,0.2,0.2,0.3,0.2c0.1,0.1,0.2,0.2,0.3,0.2c0.4,0.3,0.7,0.7,1,1 c0,0,0,0.1,0.1,0.2c0.1,0.1,0,0.1,0.1,0.1c0.1,0,0.1,0,0.1,0.1v0.1c-0.2,0.2-0.3,0.4-0.4,0.6l-0.1,0.1c-0.1,0.2-0.3,0.4-0.4,0.6 l-0.1,0.1c-0.2,0.2-0.3,0.3-0.4,0.5h-0.1l-0.5,0.5l-0.1,0.1c-0.2,0.1-0.4,0.3-0.6,0.4c-0.2,0.1-0.4,0.2-0.6,0.3h-0.1l-0.6,0.2h-0.1 c-0.2,0.1-0.4,0.1-0.7,0.2l-0.7,0.2h-1.6l-0.9-0.1h-0.1c-0.6-0.1-1.3-0.2-1.9-0.5h-0.1c-0.3-0.1-0.6-0.2-0.9-0.3l-0.3-0.1 c-0.2,0-0.3-0.1-0.5-0.1l-0.2-0.1C73.9,37.4,73,37,72,36.5c1.7-0.2,4.4-0.5,6.8-0.7c1.3,0,2.7-0.2,4-0.4c0.5-0.1,1.1-0.1,1.7-0.2 c0,0-7.4-1.4-12.4-1c0.4-0.2,0.8-0.3,1.1-0.5c0.3-0.2,0.7-0.3,1-0.4c0.3-0.1,0.6-0.2,0.9-0.4c0.3-0.1,0.6-0.2,0.9-0.3 C77.5,32.1,79.1,31.9,80.6,31.9z"/>
	</g>
</svg>
